<svg xmlns="http://www.w3.org/2000/svg" xmlns:xlink="http://www.w3.org/1999/xlink" width="251" height="30" viewBox="0 0 251 30">
    <defs>
        <path id="a" d="M0 29.095h250.94V.114H0z"/>
    </defs>
    <g fill="none" fill-rule="evenodd">
        <path fill="#1A1516" d="M48.996 7.597v2.413h-3.793v11.663h-2.768V10.01H38.64V7.597zM61.045 15.338H53.87v6.335H51.1V7.597h2.769v5.328h7.175V7.597h2.769v14.076h-2.769zM70.138 10.01v2.916h4.409v2.412h-4.409v3.92h6.05v2.414H67.37V7.597h8.612v2.413z"/>
        <g transform="translate(0 .021)">
            <path fill="#1A1516" d="M92.035 7.366c4.428 0 7.483 3.238 7.483 7.24 0 4-3.055 7.238-7.483 7.238-4.429 0-7.484-3.238-7.484-7.238 0-4.002 3.055-7.24 7.484-7.24zm0 12.065c2.707 0 4.715-2.172 4.715-4.825 0-2.655-2.008-4.827-4.715-4.827s-4.716 2.172-4.716 4.827c0 2.653 2.01 4.825 4.716 4.825zM110.769 7.567V9.98h-3.793v11.662h-2.768V9.98h-3.793V7.567zM122.818 15.309h-7.176v6.334h-2.768V7.567h2.768v5.328h7.176V7.567h2.769v14.076h-2.769zM131.912 9.98v2.916h4.408v2.413h-4.408v3.92h6.049v2.414h-8.817V7.567h8.611V9.98zM143.496 15.41v6.232h-2.768V7.567h5.229c1.476 0 2.418.403 3.136 1.046.78.724 1.27 1.75 1.27 2.875 0 1.126-.49 2.151-1.27 2.875a3.7 3.7 0 0 1-1.435.825l5.372 6.454h-3.424l-5.105-6.233h-1.005zm2.296-2.414c.8 0 1.148-.16 1.395-.422.246-.261.41-.664.41-1.066 0-.422-.164-.824-.41-1.085-.247-.262-.595-.443-1.395-.443h-2.296v3.016h2.296zM162.27 21.632l6.151-14.076h1.947l6.151 14.076h-2.89l-1.353-3.116h-5.761l-1.354 3.116h-2.891zm5.29-5.528h3.65l-1.826-4.164-1.825 4.164zM181.159 15.399v6.232h-2.767V7.556h5.228c1.477 0 2.419.402 3.137 1.045a3.93 3.93 0 0 1 1.271 2.876 3.926 3.926 0 0 1-1.271 2.876c-.39.362-.861.644-1.435.824l5.371 6.454h-3.424l-5.104-6.232h-1.006zm2.297-2.414c.799 0 1.148-.16 1.394-.422.247-.261.41-.664.41-1.066 0-.421-.163-.823-.41-1.086-.246-.261-.595-.441-1.394-.441h-2.297v3.015h2.297zM200.78 7.556V9.97h-3.794V21.63h-2.768V9.97h-3.794V7.556zM211.069 9.97v2.916h4.408V15.3h-4.408v6.334H208.3V7.556h8.612v2.413zM216.295 21.632l6.15-14.075h1.949l6.15 14.075h-2.89l-1.353-3.116h-5.762l-1.352 3.116h-2.892zm5.289-5.528h3.65l-1.824-4.163-1.826 4.163z"/>
            <mask id="b" fill="#fff">
                <use xlink:href="#a"/>
            </mask>
            <path fill="#1A1516" d="M232.418 21.633h2.767V7.557h-2.767zM241.407 15.42v6.234h-2.768V7.578h5.228c1.477 0 2.42.403 3.137 1.045a3.932 3.932 0 0 1 1.272 2.877 3.928 3.928 0 0 1-1.272 2.875 3.7 3.7 0 0 1-1.435.825l5.372 6.454h-3.424l-5.105-6.234h-1.005zm2.295-2.413c.8 0 1.15-.16 1.396-.422.246-.261.41-.662.41-1.066 0-.422-.164-.823-.41-1.086-.247-.26-.596-.442-1.396-.442h-2.295v3.016h2.295z" mask="url(#b)"/>
            <path fill="#35E890" d="M15.11 5.627c-5.161 0-9.363 4.03-9.363 8.981 0 4.943 4.202 8.978 9.362 8.978 5.172 0 9.367-4.035 9.367-8.978 0-4.952-4.195-8.98-9.367-8.98" mask="url(#b)"/>
            <path fill="#35E890" d="M15.11 26.208c-6.673 0-12.103-5.204-12.103-11.6C3.007 8.208 8.437 3 15.109 3 21.79 3 27.222 8.207 27.222 14.61c0 6.395-5.432 11.599-12.113 11.599zM0 29.095h30.223V.115H-.001v28.98z" mask="url(#b)"/>
        </g>
    </g>
</svg>
